<svg width="92" height="90" viewBox="0 0 92 90" fill="none" xmlns="http://www.w3.org/2000/svg">
<path d="M19.936 24.7484L41.2362 12.4508L81.2066 35.4204L59.8586 47.7457L19.936 24.7484Z" fill="url(#paint0_linear_181_124)"/>
<path d="M81.2066 35.4204L81.1859 60.0351L41.2183 83.1105L41.2629 58.4819L81.2066 35.4204Z" fill="url(#paint1_linear_181_124)"/>
<path d="M41.2182 83.1106L19.9387 70.7935L19.936 24.7485L41.3149 37.0721L41.2182 83.1106Z" fill="url(#paint2_linear_181_124)"/>
<path opacity="0.1" d="M41.2183 83.1105L50.453 53.1759L41.2629 58.4819L41.2183 83.1105Z" fill="black"/>
<path opacity="0.1" d="M81.2067 35.4204L59.8826 47.7318L50.5215 42.3508L81.2067 35.4204Z" fill="black"/>
<path opacity="0.1" d="M19.936 24.7484L41.2861 47.5233L41.3149 37.072L19.936 24.7484Z" fill="black"/>
<defs>
<linearGradient id="paint0_linear_181_124" x1="-4.00594" y1="51.6403" x2="59.7118" y2="88.048" gradientUnits="userSpaceOnUse">
<stop stop-color="#F6C338"/>
<stop offset="0.522782" stop-color="#FFD351"/>
<stop offset="1" stop-color="#F6C338"/>
</linearGradient>
<linearGradient id="paint1_linear_181_124" x1="-149.637" y1="76.041" x2="-74.9957" y2="221.087" gradientUnits="userSpaceOnUse">
<stop stop-color="#286EE6"/>
<stop offset="0.521046" stop-color="#4286FB"/>
<stop offset="1" stop-color="#286EE6"/>
</linearGradient>
<linearGradient id="paint2_linear_181_124" x1="0.607081" y1="4.94885" x2="-26.055" y2="58.2179" gradientUnits="userSpaceOnUse">
<stop stop-color="#069B5A"/>
<stop offset="0.531031" stop-color="#11AA62"/>
<stop offset="1" stop-color="#069B5A"/>
</linearGradient>
</defs>
</svg>
