<svg width="82" height="83" viewBox="0 0 82 83" fill="none" xmlns="http://www.w3.org/2000/svg">
<path d="M17.5143 52.1568C17.5143 56.8794 13.6975 60.6962 8.97493 60.6962C4.25239 60.6962 0.435547 56.8794 0.435547 52.1568C0.435547 47.4343 4.25239 43.6174 8.97493 43.6174H17.5143V52.1568ZM21.784 52.1568C21.784 47.4343 25.6009 43.6174 30.3234 43.6174C35.0459 43.6174 38.8628 47.4343 38.8628 52.1568V73.5053C38.8628 78.2278 35.0459 82.0447 30.3234 82.0447C25.6009 82.0447 21.784 78.2278 21.784 73.5053V52.1568Z" fill="#E01E5A"/>
<path d="M30.3236 17.8698C25.6011 17.8698 21.7842 14.0529 21.7842 9.3304C21.7842 4.60786 25.6011 0.791016 30.3236 0.791016C35.0462 0.791016 38.863 4.60786 38.863 9.3304V17.8698H30.3236ZM30.3236 22.2042C35.0462 22.2042 38.863 26.021 38.863 30.7436C38.863 35.4661 35.0462 39.2829 30.3236 39.2829H8.91048C4.18794 39.2829 0.371094 35.4661 0.371094 30.7436C0.371094 26.021 4.18794 22.2042 8.91048 22.2042H30.3236Z" fill="#36C5F0"/>
<path d="M64.5457 30.7436C64.5457 26.021 68.3626 22.2042 73.0851 22.2042C77.8077 22.2042 81.6245 26.021 81.6245 30.7436C81.6245 35.4661 77.8077 39.2829 73.0851 39.2829H64.5457V30.7436ZM60.276 30.7436C60.276 35.4661 56.4592 39.2829 51.7366 39.2829C47.0141 39.2829 43.1973 35.4661 43.1973 30.7436V9.3304C43.1973 4.60786 47.0141 0.791016 51.7366 0.791016C56.4592 0.791016 60.276 4.60786 60.276 9.3304V30.7436Z" fill="#2EB67D"/>
<path d="M51.7366 64.9659C56.4592 64.9659 60.276 68.7827 60.276 73.5053C60.276 78.2278 56.4592 82.0447 51.7366 82.0447C47.0141 82.0447 43.1973 78.2278 43.1973 73.5053V64.9659H51.7366ZM51.7366 60.6962C47.0141 60.6962 43.1973 56.8794 43.1973 52.1568C43.1973 47.4343 47.0141 43.6174 51.7366 43.6174H73.1498C77.8723 43.6174 81.6892 47.4343 81.6892 52.1568C81.6892 56.8794 77.8723 60.6962 73.1498 60.6962H51.7366Z" fill="#ECB22E"/>
</svg>
