<svg width="65" height="65" viewBox="0 0 65 65" fill="none" xmlns="http://www.w3.org/2000/svg">
<path d="M32.7298 64.7642C50.4219 64.7642 64.7642 50.4219 64.7642 32.7298C64.7642 15.0376 50.4219 0.695312 32.7298 0.695312C15.0376 0.695312 0.695312 15.0376 0.695312 32.7298C0.695312 50.4219 15.0376 64.7642 32.7298 64.7642Z" fill="url(#paint0_linear_181_45)"/>
<path fill-rule="evenodd" clip-rule="evenodd" d="M15.1958 32.3917C24.5345 28.3229 30.7617 25.6406 33.8776 24.3446C42.7739 20.6443 44.6224 20.0016 45.8273 19.9803C46.0923 19.9757 46.6848 20.0413 47.0686 20.3528C47.3927 20.6157 47.4819 20.971 47.5246 21.2203C47.5672 21.4696 47.6204 22.0376 47.5781 22.4814C47.096 27.5468 45.01 39.8392 43.9488 45.5125C43.4997 47.9131 42.6155 48.718 41.7595 48.7968C39.8992 48.968 38.4866 47.5674 36.6848 46.3863C33.8654 44.5381 32.2726 43.3876 29.5358 41.5841C26.373 39.4999 28.4233 38.3544 30.2258 36.4822C30.6975 35.9923 38.894 28.5369 39.0527 27.8606C39.0725 27.776 39.0909 27.4607 38.9036 27.2942C38.7163 27.1277 38.4398 27.1847 38.2403 27.23C37.9576 27.2941 33.4535 30.2712 24.728 36.1611C23.4496 37.039 22.2916 37.4667 21.254 37.4443C20.1102 37.4196 17.91 36.7976 16.2744 36.2659C14.2682 35.6138 12.6738 35.269 12.8126 34.1615C12.8849 33.5847 13.6793 32.9947 15.1958 32.3917Z" fill="white"/>
<defs>
<linearGradient id="paint0_linear_181_45" x1="32.7298" y1="0.695312" x2="32.7298" y2="64.289" gradientUnits="userSpaceOnUse">
<stop stop-color="#2AABEE"/>
<stop offset="1" stop-color="#229ED9"/>
</linearGradient>
</defs>
</svg>
